<svg width="8" height="8" viewBox="0 0 8 8" fill="none" xmlns="http://www.w3.org/2000/svg">
<path d="M0.864268 7.28272L0.8422 7.24722L0.804954 7.22825C0.4056 7.02486 0.220358 6.82075 0.167386 6.6393C0.117425 6.46816 0.172223 6.26693 0.386533 6.02812C0.488202 5.91482 0.571111 5.87148 0.632414 5.85671C0.692574 5.84221 0.748976 5.8511 0.806651 5.87499C0.867362 5.90013 0.922381 5.93865 0.980253 5.97987L0.98341 5.98212C1.00897 6.00033 1.03918 6.02185 1.0675 6.03823C1.0918 6.05227 1.14358 6.08059 1.20579 6.07778L1.2654 6.07509L1.30687 6.03219L5.91083 1.2695C5.93099 1.257 5.95195 1.23923 5.96885 1.21384C5.999 1.16853 6.00256 1.11985 5.9961 1.08183C5.9903 1.04766 5.97631 1.0198 5.96582 1.00169C5.95465 0.982395 5.9416 0.964368 5.92975 0.949008C5.91041 0.923922 5.89202 0.902078 5.87424 0.880965C5.84202 0.842692 5.81181 0.806816 5.78163 0.758365C5.73995 0.691457 5.72081 0.631086 5.72898 0.571165C5.73701 0.51219 5.77578 0.422966 5.91528 0.307574C6.05508 0.191945 6.16636 0.153932 6.25487 0.150299C6.34378 0.146649 6.43106 0.176788 6.52451 0.237738C6.61965 0.299786 6.71211 0.387693 6.80995 0.487971C6.83069 0.509225 6.85189 0.531279 6.87343 0.553691C6.94893 0.632242 7.02866 0.715187 7.10764 0.783468L7.13373 0.806022L7.16705 0.814916C7.62437 0.936985 7.80476 1.19015 7.84209 1.4123C7.88085 1.6429 7.77416 1.86672 7.6018 1.96894C7.4298 2.03871 7.31223 2.07279 7.2019 2.07569C7.09323 2.07856 6.97696 2.05132 6.80991 1.96932L6.71187 1.92119L6.63596 1.99972L2.01531 6.77967L1.92223 6.87596L2.00715 6.97902L2.00719 6.97906L2.00727 6.97916L2.00733 6.97923L2.0074 6.97932L2.00757 6.97953L2.01026 6.98294C2.01284 6.98624 2.01691 6.99155 2.02213 6.99867C2.0326 7.01296 2.04753 7.03431 2.06425 7.06117C2.09815 7.11562 2.13715 7.18912 2.16256 7.26988C2.1881 7.35104 2.19745 7.43161 2.18177 7.50501C2.16689 7.57465 2.12723 7.64926 2.03308 7.71997C1.83477 7.86891 1.6281 7.88102 1.4293 7.80139C1.22325 7.71886 1.02062 7.53422 0.864268 7.28272Z" fill="#D9D9D9" stroke="black" stroke-width="0.3"/>
<path d="M6.76799 3.27949C6.75246 3.52361 6.61184 3.87768 6.37131 4.2843C6.13392 4.68561 5.81003 5.12021 5.45015 5.52088C5.09004 5.92182 4.69762 6.28461 4.32468 6.54491C3.946 6.80922 3.60994 6.95185 3.35751 6.94865C3.10398 6.94543 2.78489 6.79877 2.43996 6.55282C2.10035 6.31066 1.75741 5.98813 1.46057 5.66777C1.16378 5.34747 0.917647 5.03431 0.770732 4.81403C0.754113 4.78911 0.739125 4.76591 0.725711 4.74446C0.799652 4.73855 0.873689 4.7209 0.943051 4.69692C1.09662 4.64382 1.25257 4.55132 1.38377 4.4361C1.51436 4.32141 1.6289 4.17668 1.68796 4.01454C1.72058 3.92497 1.73618 3.82959 1.72774 3.73311C2.0574 3.75338 2.31198 3.70132 2.47417 3.51502C2.57101 3.40379 2.61952 3.26079 2.64239 3.10174C2.65964 2.98179 2.66331 2.84522 2.65853 2.69359C3.02157 2.66933 3.28318 2.5875 3.44545 2.39806C3.61094 2.20487 3.64167 1.93376 3.63652 1.62353C4.18783 1.29809 4.52515 1.18436 4.95818 1.18436C5.03862 1.18436 5.1974 1.23669 5.40623 1.35821C5.6076 1.47539 5.83427 1.64438 6.04469 1.84794C6.47272 2.26202 6.79945 2.78484 6.76799 3.27949Z" fill="#4F2E11" stroke="black" stroke-width="0.3"/>
</svg>
