<svg xmlns="http://www.w3.org/2000/svg"
     width="8"
     height="8"
     fill="none"
     viewBox="0 0 8 8">
  <path fill="#D9D9D9"
        stroke="#000"
        stroke-linejoin="round"
        stroke-width=".3"
        d="M2.194 7.696c-.469.352-1.011.06-1.335-.46-.792-.404-.89-.883-.444-1.38.446-.497.77.005.89 0L5.75 1.255c.183-.072-.606-.418 0-.92.607-.502.968.143 1.335.46.966.258.898 1.123.444 1.38-.347.142-.542.17-.89 0l-4.446 4.6s.468.57 0 .92Z" />
  <path fill="#7a471a"
        stroke="#000"
        stroke-linejoin="round"
        stroke-width=".3"
        d="M3.371 6.944c1.149.015 3.327-2.55 3.395-3.618.068-1.068-1.4-2.142-1.867-2.142-.469 0-.827.133-1.405.48.023.668-.1.94-.937.96.049.8-.093 1.074-.936.96.288.5-.572 1.112-.937.96-.365-.151 1.539 2.386 2.687 2.4Z" />
</svg>
