<svg xmlns="http://www.w3.org/2000/svg"
     width="8"
     height="8"
     fill="none">
  <defs>
    <filter id="a">
      <feColorMatrix in="a1"
                     type="saturate"
                     values="0" />
    </filter>
  </defs>
  <g fill="red"
     filter="url(#a)">
    <path
          d="M2.123 7.84c-.486.365-1.05.062-1.386-.478-.823-.42-.925-.918-.462-1.434.463-.516.8.006.924 0l4.62-4.78c.19-.074-.63-.435 0-.956.631-.521 1.006.15 1.387.478 1.003.268.933 1.167.462 1.434-.36.147-.563.177-.924 0l-4.62 4.78s.486.59 0 .956Z" />
    <path
          d="M3.356 7.099c1.205.015 3.49-2.686 3.562-3.81.071-1.124-1.469-2.255-1.96-2.255-.491 0-.867.14-1.474.506.025.702-.104.989-.982 1.01.05.842-.099 1.131-.983 1.011.303.526-.6 1.17-.983 1.01-.382-.159 1.615 2.512 2.82 2.528Z" />
  </g>
</svg>
