<svg width="6" height="8" viewBox="0 0 6 8" fill="none" xmlns="http://www.w3.org/2000/svg">
<path d="M2.82035 2.21833L2.82045 7.6097C1.6728 6.31042 0.779913 4.93239 0.379658 3.65136C-0.0113466 2.39993 0.0710122 1.25896 0.824572 0.359661C0.872094 0.93006 0.997221 1.34535 1.17259 1.64339C1.38534 2.00497 1.66801 2.18662 1.95327 2.26059C2.23323 2.3332 2.50519 2.29964 2.70173 2.25146C2.74459 2.24095 2.78434 2.22964 2.82035 2.21833ZM5.75345 3.18705C5.48658 4.39156 4.65535 5.84246 3.12045 7.60413L3.12035 2.21842C3.16069 2.23134 3.20574 2.24443 3.25461 2.2566C3.45914 2.3075 3.74137 2.34486 4.02829 2.2752C4.3211 2.20411 4.60945 2.02343 4.81775 1.65729C4.98681 1.36014 5.09976 0.94707 5.12851 0.381473C5.7633 1.1523 6.00178 2.06623 5.75345 3.18705Z" fill="#FF0000" stroke="black" stroke-width="0.3"/>
</svg>
