<svg width="4" height="8" viewBox="0 0 4 8" fill="none" xmlns="http://www.w3.org/2000/svg">
<path d="M1.89393 3.10607C2.20135 3.41348 2.59396 3.40879 2.97025 3.27793C3.23741 3.18502 3.51416 3.02357 3.78074 2.84166C3.56533 3.84482 3.20414 4.72291 2.64554 5.50937C2.14328 6.21651 1.47804 6.85431 0.606977 7.44331C1.06412 6.79041 1.41174 6.15331 1.65991 5.60294C1.82509 5.23663 1.94678 4.90749 2.02746 4.63639C2.10702 4.36903 2.15 4.14732 2.15 4C2.15 3.84113 2.09759 3.70064 1.98568 3.60119C1.87681 3.50444 1.73051 3.46336 1.57382 3.46054C1.31615 3.45589 0.993136 3.55314 0.639341 3.74466C0.607526 2.71886 0.738192 2.03126 1.07466 1.50873C1.36485 1.05807 1.81908 0.712983 2.50046 0.384334C2.12497 0.889672 1.86754 1.36138 1.73377 1.77569C1.55994 2.31405 1.58446 2.79659 1.89393 3.10607Z" fill="#FFE600" stroke="black" stroke-width="0.3"/>
</svg>
